<svg xmlns="http://www.w3.org/2000/svg" viewBox="0 0 1024 1024"><path d="M928 128h-224v-96c0-17.664-14.336-32-32-32h-320c-17.664 0-32 14.336-32 32v96h-224c-17.664 0-32 14.336-32 32s14.336 32 32 32h66.368l61.696 802.432c1.28 16.704 15.168 29.568 31.936 29.568h512c16.768 0 30.656-12.864 31.872-29.568l61.76-802.432h66.368c17.664 0 32-14.336 32-32s-14.336-32-32-32zm-544-64h256v64h-256v-64zm354.368 896h-452.736l-59.072-768h570.88l-59.072 768zm-322.368-64c17.664 0 32-14.336 32-32v-512c0-17.664-14.336-32-32-32s-32 14.336-32 32v512c0 17.664 14.336 32 32 32zm192 0c17.664 0 32-14.336 32-32v-512c0-17.664-14.336-32-32-32s-32 14.336-32 32v512c0 17.664 14.336 32 32 32z" fill="#00758f"/></svg>